<?xml version="1.0" encoding="utf-8"?>
<!-- Generator: Adobe Illustrator 19.2.0, SVG Export Plug-In . SVG Version: 6.00 Build 0)  -->
<svg version="1.1" id="Layer_1" xmlns:sketch="http://www.bohemiancoding.com/sketch/ns"
	 xmlns="http://www.w3.org/2000/svg" xmlns:xlink="http://www.w3.org/1999/xlink" x="0px" y="0px" width="20.6px" height="15.2px"
	 viewBox="0 0 20.6 15.2" style="enable-background:new 0 0 20.6 15.2;" xml:space="preserve">
<style type="text/css">
	.st0{fill:#FFFFFF;}
</style>
<title>Artboard</title>
<desc>Created with Sketch.</desc>
<g id="Page-1_1_" sketch:type="MSPage">
	<g id="Artboard" sketch:type="MSArtboardGroup">
		<g id="Page-1" transform="translate(3.000000, 4.000000)" sketch:type="MSLayerGroup">
			<path id="Fill-1" sketch:type="MSShapeGroup" class="st0" d="M7.7,6.8C7.6,6.9,7.4,7,7.2,7C7,7,6.9,6.9,6.7,6.8l-9.3-9.4
				c0,0.1-0.1,0.2-0.1,0.4V9.3c0,0.8,0.6,1.5,1.4,1.5h17.2c0.8,0,1.4-0.6,1.4-1.5V-2.3c0-0.2,0-0.4-0.1-0.6L7.7,6.8z"/>
			<path id="Fill-2" sketch:type="MSShapeGroup" class="st0" d="M7.2,5.3l8.9-9c-0.1,0-0.1,0-0.1,0H-1.2c-0.1,0-0.2,0-0.4,0.1
				L7.2,5.3z"/>
		</g>
	</g>
</g>
</svg>
